<svg width="64" height="64" viewBox="0 0 64 64" fill="none" xmlns="http://www.w3.org/2000/svg">
<g clip-path="url(#clip0_5_38)">
<circle cx="32" cy="32" r="32" fill="white"/>
<path d="M21.2 18C19.4403 18 18 19.4403 18 21.2V41.68C18 43.4397 19.4403 44.88 21.2 44.88H41.68C43.4397 44.88 44.88 43.4397 44.88 41.68V21.2C44.88 19.4403 43.4397 18 41.68 18H21.2ZM21.2 19.28H41.68C42.7478 19.28 43.6 20.1322 43.6 21.2V41.68C43.6 42.7478 42.7478 43.6 41.68 43.6H21.2C20.1322 43.6 19.28 42.7478 19.28 41.68V21.2C19.28 20.1322 20.1322 19.28 21.2 19.28ZM30.4137 25.675C29.737 25.6734 29.1335 25.7113 28.5937 25.9762L28.5925 25.9775C28.3294 26.1071 28.1439 26.2718 27.9962 26.4675C27.9224 26.5653 27.8468 26.6532 27.8062 26.8762C27.786 26.9878 27.7746 27.1685 27.8912 27.3637C28.0079 27.559 28.2424 27.67 28.3925 27.69C28.4967 27.7039 28.732 27.804 28.7537 27.8337L28.755 27.8362C28.755 27.8362 28.8462 28.0743 28.8725 28.2862C28.8988 28.4982 28.8975 28.67 28.8975 28.67C28.8972 28.6871 28.8976 28.7042 28.8987 28.7212C28.8987 28.7212 28.9358 29.2765 28.9112 29.85C28.9015 30.0786 28.8719 30.2819 28.8412 30.4637C28.6133 30.2121 28.2775 29.7565 27.7925 28.9162C27.2545 27.9836 26.8262 27.1475 26.8262 27.1475C26.8038 27.0747 26.7242 26.848 26.4137 26.62C26.0743 26.3698 25.7462 26.3325 25.7462 26.3325C25.7051 26.3242 25.6632 26.3201 25.6212 26.32L23.0987 26.3212C23.0987 26.3212 22.9475 26.3125 22.7662 26.3375C22.585 26.3625 22.3121 26.3828 22.0487 26.695L22.0475 26.6962C21.8122 26.9774 21.8264 27.2882 21.855 27.4637C21.8836 27.6393 21.9475 27.7725 21.9475 27.7725C21.9487 27.775 21.95 27.7775 21.9512 27.78C21.9512 27.78 24.0145 32.1181 26.3462 34.6725C28.0395 36.5272 29.7774 36.5587 31.2112 36.5587H32.2812C32.5544 36.5587 32.8015 36.5481 33.075 36.3887C33.3485 36.2294 33.5325 35.8415 33.5325 35.5725C33.5325 35.2906 33.5746 35.0689 33.6262 34.955C33.6626 34.8749 33.6913 34.846 33.7362 34.8225C33.7457 34.8285 33.7396 34.825 33.7662 34.8437C33.8728 34.9187 34.0487 35.0895 34.24 35.3025C34.6226 35.7286 35.0568 36.313 35.64 36.7137C36.0578 37.0011 36.4525 37.1287 36.7525 37.175C36.9405 37.204 37.0865 37.1984 37.19 37.19L39.58 37.2C39.5942 37.2001 39.6084 37.1996 39.6225 37.1987C39.6225 37.1987 40.0343 37.2035 40.4625 36.9475C40.6766 36.8195 40.9291 36.5767 41.0112 36.2225C41.0934 35.8683 40.9902 35.5013 40.7887 35.1662V35.165C40.8237 35.223 40.7571 35.1038 40.6887 34.9925C40.6204 34.8812 40.5212 34.7311 40.3787 34.545C40.0939 34.1727 39.6376 33.6518 38.9 32.965H38.8987C38.5241 32.6165 38.2712 32.3697 38.1675 32.2325C38.0638 32.0953 38.0978 32.1674 38.105 32.1325C38.1194 32.0628 38.5689 31.4142 39.4837 30.1925C40.0398 29.4489 40.4301 28.8906 40.6875 28.4262C40.9449 27.9619 41.1305 27.5597 41.0012 27.0675L41 27.065C40.9426 26.8489 40.7859 26.6498 40.625 26.5412C40.4641 26.4327 40.3115 26.3903 40.175 26.3637C39.902 26.3106 39.6637 26.32 39.4425 26.32C38.9787 26.32 36.9206 26.3362 36.7512 26.3362C36.5511 26.3362 36.2201 26.4273 36.0737 26.515C35.7057 26.7365 35.6 27.0275 35.6 27.0275C35.5933 27.0398 35.5871 27.0523 35.5812 27.065C35.5812 27.065 35.1567 28.0064 34.61 28.9362C34.0562 29.8794 33.647 30.3293 33.4 30.5375C33.3932 30.5005 33.3944 30.5305 33.39 30.4787C33.3679 30.2154 33.3925 29.8514 33.3925 29.4962C33.3925 28.5398 33.4736 27.8703 33.43 27.2787C33.4082 26.983 33.3534 26.6779 33.1587 26.3975C32.9641 26.1171 32.6402 25.9349 32.32 25.8575C32.1279 25.8112 31.9089 25.6906 31.1162 25.6825H31.115C30.8726 25.6801 30.6393 25.6755 30.4137 25.675ZM31.1025 26.9625C31.8039 26.9697 31.6292 27.0083 32.0187 27.1025C32.1396 27.1317 32.1103 27.1315 32.1075 27.1275C32.1047 27.1235 32.1402 27.1895 32.1537 27.3737C32.1809 27.7423 32.1125 28.4751 32.1125 29.4962C32.1125 29.7747 32.0789 30.172 32.1137 30.5862C32.1486 31.0005 32.2513 31.532 32.7462 31.8525C32.9809 32.0046 33.2533 32.0142 33.4862 31.9562C33.7192 31.8983 33.9306 31.7777 34.1525 31.6C34.5964 31.2446 35.0914 30.6448 35.7137 29.585C36.2954 28.5958 36.7185 27.6537 36.7325 27.6225C36.7352 27.6203 36.738 27.6188 36.7412 27.6162C36.7492 27.6163 36.741 27.6162 36.7512 27.6162C36.9902 27.6162 39.0103 27.6 39.4425 27.6C39.5434 27.6 39.5801 27.6061 39.66 27.6087C39.6383 27.6812 39.6624 27.635 39.5675 27.8062C39.3684 28.1654 39.0015 28.6992 38.4587 29.425C37.5668 30.6161 37.014 31.0829 36.8512 31.8737C36.7699 32.2692 36.9224 32.7075 37.1462 33.0037C37.3701 33.3 37.6527 33.5538 38.0275 33.9025C38.7216 34.5488 39.1288 35.0184 39.3625 35.3237C39.4793 35.4764 39.553 35.5867 39.5987 35.6612C39.6445 35.7358 39.6332 35.7279 39.6925 35.8262C39.7315 35.8917 39.7172 35.8517 39.7237 35.8712C39.647 35.8929 39.554 35.9189 39.5487 35.92L37.195 35.91C37.1526 35.91 37.1103 35.9142 37.0687 35.9225C37.0687 35.9225 37.0746 35.9294 36.9487 35.91C36.8228 35.8906 36.6226 35.8361 36.365 35.6587C36.0541 35.4451 35.6189 34.9224 35.1925 34.4475C34.9793 34.2101 34.7667 33.982 34.5025 33.7962C34.2383 33.6105 33.843 33.4358 33.4162 33.57C32.9732 33.7091 32.6284 34.0549 32.46 34.4262C32.3347 34.7027 32.3245 34.9915 32.305 35.2787C32.2838 35.2803 32.3082 35.2787 32.2812 35.2787H31.2112C29.7574 35.2787 28.7251 35.3793 27.2912 33.8087C25.3626 31.6959 23.5956 28.1805 23.3075 27.6012L25.5275 27.6C25.5665 27.615 25.65 27.6463 25.655 27.65L25.6575 27.6525C25.5764 27.5932 25.6612 27.6762 25.6612 27.6762C25.6691 27.6954 25.6778 27.7142 25.6875 27.7325C25.6875 27.7325 26.1274 28.5919 26.6837 29.5562C27.2295 30.5017 27.6272 31.0922 28.0112 31.4825C28.2033 31.6776 28.3971 31.8341 28.6562 31.9225C28.9154 32.0109 29.2499 31.9785 29.475 31.855C29.9348 31.6033 29.9966 31.2321 30.0712 30.9075C30.146 30.5825 30.1758 30.2362 30.19 29.905C30.2175 29.2621 30.1786 28.7056 30.1762 28.6712C30.1764 28.6592 30.1793 28.4272 30.1425 28.13C30.1048 27.8257 30.0628 27.4537 29.7875 27.0787L29.7862 27.0775C29.7843 27.0749 29.7819 27.0751 29.78 27.0725C30.144 27.0203 30.4555 26.956 31.1025 26.9625ZM36.7487 27.59L36.74 27.61C36.7386 27.6108 36.7391 27.6091 36.7375 27.61C36.7402 27.6048 36.7487 27.59 36.7487 27.59Z" fill="#BEADD9"/>
</g>
<defs>
<clipPath id="clip0_5_38">
<rect width="64" height="64" fill="white"/>
</clipPath>
</defs>
</svg>
