<svg width="64" height="64" viewBox="0 0 64 64" fill="none" xmlns="http://www.w3.org/2000/svg">
<g clip-path="url(#clip0_5_36)">
<circle cx="32" cy="32" r="32" fill="white"/>
<path d="M37.9052 20C34.0777 20 30.9652 23.0052 30.9652 26.7007C30.9652 26.9228 31.0227 27.14 31.0452 27.3572C26.3127 26.9203 22.1277 24.719 19.2852 21.3517C19.1527 21.19 18.9477 21.1031 18.7327 21.1176C18.5202 21.1321 18.3302 21.2503 18.2252 21.429C17.6277 22.421 17.2852 23.5628 17.2852 24.789C17.2852 26.2734 17.8352 27.6324 18.6852 28.7476C18.5202 28.6776 18.3402 28.639 18.1852 28.5545C17.9877 28.4531 17.7502 28.4579 17.5577 28.569C17.3652 28.68 17.2477 28.8803 17.2452 29.0952V29.1724C17.2452 31.4486 18.4652 33.4255 20.2652 34.6372C20.2452 34.6348 20.2252 34.6421 20.2052 34.6372C19.9852 34.601 19.7627 34.6759 19.6152 34.8376C19.4677 34.9993 19.4202 35.2238 19.4852 35.429C20.2002 37.5748 22.0252 39.2138 24.2852 39.8124C22.4852 40.8455 20.3977 41.4538 18.1452 41.4538C17.6577 41.4538 17.1902 41.4297 16.7252 41.3766C16.4252 41.3379 16.1377 41.5069 16.0377 41.7821C15.9352 42.0572 16.0477 42.3638 16.3052 42.5159C19.1927 44.3045 22.6202 45.3545 26.3052 45.3545C32.2777 45.3545 36.9627 42.9455 40.1052 39.5034C43.2477 36.0614 44.8852 31.591 44.8852 27.4152C44.8852 27.239 44.8702 27.0676 44.8652 26.8938C46.0377 26.0272 47.0852 25.011 47.9052 23.8234C48.0677 23.5941 48.0502 23.2876 47.8627 23.0752C47.6777 22.8628 47.3652 22.7976 47.1052 22.9159C46.7752 23.0583 46.3902 23.0728 46.0452 23.1862C46.5002 22.5997 46.8902 21.9672 47.1252 21.2552C47.2052 21.0114 47.1177 20.7434 46.9102 20.5841C46.7027 20.4272 46.4127 20.4079 46.1852 20.5407C45.0927 21.1659 43.8827 21.6052 42.6052 21.8731C41.3652 20.7531 39.7327 20 37.9052 20ZM37.9052 21.2359C39.5377 21.2359 41.0127 21.9093 42.0452 22.9738C42.2002 23.1283 42.4277 23.1934 42.6452 23.1476C43.4802 22.9883 44.2727 22.7541 45.0452 22.4524C44.6002 23.0317 44.0502 23.5266 43.4052 23.9007C43.1127 24.0383 42.9752 24.3641 43.0827 24.661C43.1877 24.9555 43.5077 25.1269 43.8252 25.0593C44.4652 24.9845 45.0352 24.7334 45.6452 24.5766C45.0977 25.1486 44.4977 25.6652 43.8452 26.1214C43.6677 26.2469 43.5702 26.4497 43.5852 26.6621C43.5952 26.9131 43.6052 27.1617 43.6052 27.4152C43.6052 31.2772 42.0702 35.47 39.1452 38.6731C36.2202 41.8762 31.9252 44.1186 26.3052 44.1186C23.7527 44.1186 21.3427 43.5731 19.1652 42.6124C21.8652 42.4121 24.3552 41.49 26.3652 39.9669C26.5752 39.8052 26.6577 39.5348 26.5727 39.2886C26.4877 39.0424 26.2527 38.8734 25.9852 38.8662C23.8752 38.83 22.1077 37.6448 21.1652 35.9697C21.2002 35.9697 21.2302 35.9697 21.2652 35.9697C21.8977 35.9697 22.5227 35.8924 23.1052 35.7379C23.3852 35.6583 23.5777 35.4072 23.5677 35.1248C23.5577 34.8424 23.3502 34.601 23.0652 34.5407C20.7877 34.0966 19.0802 32.3055 18.6852 30.08C19.3302 30.2948 19.9902 30.4638 20.7052 30.4855C20.9977 30.5024 21.2627 30.3262 21.3527 30.0583C21.4427 29.7903 21.3327 29.4959 21.0852 29.3462C19.5652 28.3638 18.5652 26.691 18.5652 24.789C18.5652 24.0841 18.7552 23.4372 19.0052 22.8193C22.2052 26.2107 26.6852 28.4628 31.7452 28.709C31.9452 28.7186 32.1402 28.639 32.2702 28.4917C32.4002 28.3421 32.4502 28.1441 32.4052 27.9559C32.3077 27.5552 32.2452 27.1303 32.2452 26.7007C32.2452 23.6738 34.7702 21.2359 37.9052 21.2359Z" fill="#BEADD9"/>
</g>
<defs>
<clipPath id="clip0_5_36">
<rect width="64" height="64" fill="white"/>
</clipPath>
</defs>
</svg>
