<svg width="64" height="64" viewBox="0 0 64 64" fill="none" xmlns="http://www.w3.org/2000/svg">
<g clip-path="url(#clip0_5_34)">
<circle cx="32" cy="32" r="32" fill="white"/>
<path d="M26.32 18C21.7328 18 18 21.7328 18 26.32V37.84C18 42.4272 21.7328 46.16 26.32 46.16H37.84C42.4272 46.16 46.16 42.4272 46.16 37.84V26.32C46.16 21.7328 42.4272 18 37.84 18H26.32ZM26.32 19.28H37.84C41.7353 19.28 44.88 22.4247 44.88 26.32V37.84C44.88 41.7353 41.7353 44.88 37.84 44.88H26.32C22.4247 44.88 19.28 41.7353 19.28 37.84V26.32C19.28 22.4247 22.4247 19.28 26.32 19.28ZM39.76 23.12C39.4205 23.12 39.0949 23.2549 38.8549 23.4949C38.6149 23.7349 38.48 24.0605 38.48 24.4C38.48 24.7395 38.6149 25.065 38.8549 25.3051C39.0949 25.5451 39.4205 25.68 39.76 25.68C40.0995 25.68 40.4251 25.5451 40.6651 25.3051C40.9051 25.065 41.04 24.7395 41.04 24.4C41.04 24.0605 40.9051 23.7349 40.6651 23.4949C40.4251 23.2549 40.0995 23.12 39.76 23.12ZM32.08 25.04C28.1995 25.04 25.04 28.1995 25.04 32.08C25.04 35.9605 28.1995 39.12 32.08 39.12C35.9605 39.12 39.12 35.9605 39.12 32.08C39.12 28.1995 35.9605 25.04 32.08 25.04ZM32.08 26.32C35.2687 26.32 37.84 28.8913 37.84 32.08C37.84 35.2687 35.2687 37.84 32.08 37.84C28.8913 37.84 26.32 35.2687 26.32 32.08C26.32 28.8913 28.8913 26.32 32.08 26.32Z" fill="#BEADD9"/>
</g>
<defs>
<clipPath id="clip0_5_34">
<rect width="64" height="64" fill="white"/>
</clipPath>
</defs>
</svg>
