<svg width="64" height="64" viewBox="0 0 64 64" fill="none" xmlns="http://www.w3.org/2000/svg">
<g clip-path="url(#clip0_5_40)">
<circle cx="32" cy="32" r="32" fill="white"/>
<path d="M44.4805 20.0019C44.1687 20.0156 43.8653 20.1023 43.5917 20.2119C43.3209 20.3207 41.7617 20.9862 39.4592 21.9706C37.1567 22.9551 34.1637 24.237 31.1967 25.5081C25.2628 28.0504 19.4317 30.5519 19.4317 30.5519L19.4742 30.5356C19.4742 30.5356 19.1223 30.6533 18.7655 30.9019C18.5871 31.0262 18.3951 31.1867 18.238 31.4206C18.0808 31.6546 17.9659 31.9862 18.0092 32.3369C18.1613 33.5687 19.438 33.9181 19.438 33.9181L19.443 33.9206L25.1405 35.8706C25.2857 36.3552 26.8685 41.6381 27.2167 42.7569C27.409 43.3754 27.589 43.7322 27.7767 43.9756C27.8707 44.0974 27.9691 44.1917 28.078 44.2606C28.1212 44.288 28.1667 44.3086 28.2117 44.3269H28.2142C28.2197 44.3293 28.2249 44.3295 28.2305 44.3319L28.2155 44.3281C28.2259 44.3324 28.2362 44.3395 28.2467 44.3431C28.267 44.3503 28.2795 44.35 28.3055 44.3556C28.958 44.5835 29.498 44.1606 29.498 44.1606L29.5205 44.1431L33.0205 40.8969L38.7005 45.3256L38.7717 45.3581C39.7659 45.7996 40.665 45.5533 41.163 45.1481C41.6609 44.743 41.8567 44.2206 41.8567 44.2206L41.878 44.1656L46.0517 22.4119C46.1585 21.9252 46.1737 21.5045 46.073 21.1244C45.9722 20.7442 45.7275 20.4138 45.4205 20.2306C45.1134 20.0475 44.7922 19.9882 44.4805 20.0019ZM44.5142 21.3031C44.6408 21.2973 44.7346 21.3117 44.7642 21.3294C44.7938 21.347 44.8071 21.3447 44.8355 21.4519C44.8639 21.5591 44.8792 21.7848 44.8017 22.1381L44.7992 22.1456L40.6492 43.7731C40.6394 43.7949 40.5529 43.995 40.3555 44.1556C40.154 44.3195 39.93 44.4475 39.3355 44.1981L33.1242 39.3544L32.9492 39.2169L32.9455 39.2206L31.088 37.8269L41.5267 25.5456C41.6069 25.4515 41.6581 25.3362 41.6742 25.2135C41.6902 25.0909 41.6704 24.9663 41.6171 24.8547C41.5639 24.7431 41.4794 24.6493 41.3739 24.5847C41.2685 24.5201 41.1466 24.4874 41.023 24.4906C40.9022 24.4938 40.7847 24.531 40.6842 24.5981L25.5792 34.6681L19.873 32.7144C19.873 32.7144 19.3063 32.3991 19.2792 32.1794C19.2777 32.1672 19.271 32.1782 19.3005 32.1344C19.3299 32.0905 19.4039 32.0165 19.4967 31.9519C19.6823 31.8226 19.8942 31.7444 19.8942 31.7444L19.9155 31.7369L19.9367 31.7281C19.9367 31.7281 25.7681 29.2266 31.7017 26.6844C34.6685 25.4133 37.661 24.1323 39.963 23.1481C42.2643 22.1642 43.9272 21.456 44.068 21.3994C44.2283 21.3352 44.3876 21.309 44.5142 21.3031ZM37.5917 28.1981L29.6755 37.5119L29.6717 37.5156C29.6594 37.5305 29.6477 37.5459 29.6367 37.5619C29.6242 37.5792 29.6125 37.5971 29.6017 37.6156C29.5572 37.6911 29.5287 37.7749 29.518 37.8619C29.518 37.8635 29.518 37.8652 29.518 37.8669L28.4867 42.5044C28.4696 42.4543 28.4576 42.4359 28.4392 42.3769V42.3756C28.1117 41.3232 26.6183 36.3409 26.4117 35.6519L37.5917 28.1981ZM30.5692 39.0381L31.9917 40.1056L29.9017 42.0431L30.5692 39.0381Z" fill="#BEADD9"/>
</g>
<defs>
<clipPath id="clip0_5_40">
<rect width="64" height="64" fill="white"/>
</clipPath>
</defs>
</svg>
