<svg width="64" height="64" viewBox="0 0 64 64" fill="none" xmlns="http://www.w3.org/2000/svg">
<g clip-path="url(#clip0_1_11)">
<circle cx="32" cy="32" r="32" fill="white"/>
<path fill-rule="evenodd" clip-rule="evenodd" d="M20 39.8261C20 36.201 22.2144 33.1155 25.3087 31.9624C26.1498 31.649 27.0558 31.4783 28 31.4783C28.9442 31.4783 29.8503 31.649 30.6912 31.9624C31.1481 32.1326 31.5857 32.345 32 32.5951C32.4143 32.345 32.8519 32.1326 33.3088 31.9624C34.1497 31.649 35.0557 31.4783 36 31.4783C36.9443 31.4783 37.8503 31.649 38.6912 31.9624C41.7856 33.1155 44 36.201 44 39.8261V44H37V41.913H42V39.8261C42 36.3683 39.3137 33.5652 36 33.5652C35.2039 33.5652 34.444 33.727 33.7488 34.0209C35.1424 35.5232 36 37.5701 36 39.8261V44H20V39.8261ZM28 30.4348C27.0814 30.4348 26.2206 30.1763 25.4809 29.7252C23.9969 28.8203 23 27.1403 23 25.2174C23 22.3359 25.2386 20 28 20C29.6356 20 31.0877 20.8195 32 22.0864C32.9123 20.8195 34.3644 20 36 20C38.7615 20 41 22.3359 41 25.2174C41 27.1403 40.0031 28.8203 38.5191 29.7252C37.7793 30.1763 36.9187 30.4348 36 30.4348C35.0813 30.4348 34.2207 30.1763 33.4809 29.7252C32.9035 29.3731 32.3999 28.9037 32 28.3483C31.6001 28.9038 31.0965 29.3731 30.5191 29.7252C29.7793 30.1763 28.9186 30.4348 28 30.4348ZM34 39.8261V41.913H22V39.8261C22 36.3683 24.6863 33.5652 28 33.5652C31.3137 33.5652 34 36.3683 34 39.8261ZM31 25.2174C31 26.9463 29.6568 28.3478 28 28.3478C26.3431 28.3478 25 26.9463 25 25.2174C25 23.4885 26.3431 22.087 28 22.087C29.6568 22.087 31 23.4885 31 25.2174ZM36 22.087C34.3432 22.087 33 23.4885 33 25.2174C33 26.9463 34.3432 28.3478 36 28.3478C37.6568 28.3478 39 26.9463 39 25.2174C39 23.4885 37.6568 22.087 36 22.087Z" fill="#BEADD9"/>
</g>
<defs>
<clipPath id="clip0_1_11">
<rect width="64" height="64" fill="white"/>
</clipPath>
</defs>
</svg>
