<svg width="64" height="64" viewBox="0 0 64 64" fill="none" xmlns="http://www.w3.org/2000/svg">
<g clip-path="url(#clip0_1_14)">
<circle cx="32" cy="32" r="32" fill="white"/>
<path d="M34.4242 41.9317C34.2263 41.9814 34.0245 42.0256 33.8243 42.0627C33.3007 42.1608 32.9546 42.668 33.0514 43.1958C33.0992 43.4555 33.2457 43.6718 33.4444 43.813C33.6493 43.9582 33.9101 44.0238 34.1757 43.974C34.4143 43.9294 34.6546 43.877 34.8905 43.8177C35.4075 43.6881 35.7225 43.1605 35.5935 42.64C35.4648 42.119 34.9415 41.802 34.4242 41.9317Z" fill="#BEADD9"/>
<path d="M41.5591 28.9052C41.6267 29.1103 41.7557 29.2778 41.9187 29.3936C42.1603 29.565 42.4765 29.6227 42.7783 29.5222C43.2842 29.353 43.5583 28.8035 43.3909 28.2941C43.3147 28.0619 43.2301 27.829 43.1399 27.6022C42.942 27.1039 42.3808 26.8612 41.8858 27.0606C41.3913 27.2598 41.1503 27.8253 41.3484 28.3238C41.4241 28.5144 41.495 28.7101 41.5591 28.9052Z" fill="#BEADD9"/>
<path d="M37.5594 40.5442C37.3892 40.6573 37.2135 40.7669 37.0365 40.8695C36.5748 41.1378 36.4167 41.7322 36.6829 42.1971C36.7552 42.3235 36.8515 42.4269 36.9623 42.5059C37.26 42.7168 37.6642 42.7484 38.0007 42.5531C38.2111 42.4309 38.4203 42.3009 38.623 42.1659C39.0674 41.8701 39.1897 41.2671 38.896 40.8193C38.6023 40.3713 38.0039 40.2482 37.5594 40.5442Z" fill="#BEADD9"/>
<path d="M43.9908 31.6195C43.9698 31.0831 43.5213 30.6656 42.9886 30.6865C42.4566 30.7077 42.0418 31.1597 42.0627 31.6959C42.0707 31.9009 42.0728 32.109 42.0681 32.3138C42.0606 32.6501 42.2239 32.95 42.4778 33.1302C42.629 33.2375 42.8125 33.3024 43.0115 33.307C43.544 33.3189 43.9853 32.8934 43.9971 32.3567C44.0024 32.112 44.0004 31.8641 43.9908 31.6195Z" fill="#BEADD9"/>
<path d="M41.4016 37.9875C40.9746 37.6648 40.3705 37.7524 40.0506 38.1818C39.9282 38.3462 39.7992 38.5086 39.6671 38.665C39.322 39.0735 39.3707 39.687 39.7762 40.0349C39.7993 40.0547 39.8227 40.0728 39.847 40.0898C40.2501 40.3761 40.8104 40.3103 41.1363 39.925C41.294 39.7385 41.4478 39.5445 41.5941 39.3481C41.914 38.9187 41.8274 38.3098 41.4016 37.9875Z" fill="#BEADD9"/>
<path d="M42.8199 34.4744C42.3114 34.3138 41.77 34.5989 41.6107 35.111C41.5497 35.3067 41.4821 35.5033 41.4091 35.6958C41.249 36.1197 41.4024 36.586 41.7543 36.8359C41.8188 36.8816 41.8899 36.9203 41.9672 36.9497C42.465 37.1411 43.0224 36.8895 43.2122 36.3879C43.2988 36.1589 43.3792 35.925 43.4518 35.6924C43.611 35.1802 43.3282 34.6349 42.8199 34.4744Z" fill="#BEADD9"/>
<path d="M30.215 42.0714C29.3524 41.9154 28.5249 41.6498 27.7403 41.2792C27.731 41.2744 27.7227 41.2688 27.7129 41.2643C27.528 41.1767 27.3434 41.0828 27.1645 40.9846C27.1639 40.9839 27.1627 40.9834 27.1618 40.983C26.8335 40.8009 26.5131 40.5994 26.2019 40.3787C21.6633 37.1583 20.572 30.8189 23.7693 26.2472C24.4646 25.2535 25.3059 24.4244 26.2439 23.7674C26.2555 23.7593 26.267 23.7512 26.2785 23.743C29.5838 21.449 34.0718 21.2944 37.5815 23.6517L36.8277 24.7488C36.6182 25.0542 36.7471 25.2767 37.114 25.2435L40.3883 24.9482C40.7556 24.9149 40.9753 24.5948 40.8765 24.2375L39.9972 21.0464C39.8988 20.6886 39.6468 20.6458 39.437 20.9511L38.6815 22.0508C36.1058 20.3092 33.0166 19.6451 29.9504 20.1807C29.6415 20.2345 29.3371 20.3004 29.0367 20.3771C29.0344 20.3776 29.0326 20.3778 29.0307 20.3782C29.0191 20.3811 29.0073 20.3849 28.996 20.3881C26.352 21.072 24.0451 22.6254 22.399 24.8417C22.3851 24.8583 22.3708 24.8745 22.3577 24.8925C22.303 24.9668 22.2486 25.0428 22.1954 25.1187C22.1085 25.2432 22.0227 25.3709 21.9407 25.4985C21.9304 25.5139 21.9226 25.5295 21.9136 25.5451C20.5552 27.6654 19.9 30.1167 20.0124 32.6123C20.0126 32.6205 20.0122 32.6288 20.0124 32.6372C20.0232 32.881 20.0424 33.1282 20.0685 33.3715C20.0699 33.3872 20.0733 33.402 20.076 33.4177C20.1029 33.6624 20.1367 33.9076 20.1791 34.1528C20.6095 36.6544 21.7811 38.9055 23.5366 40.6571C23.5406 40.6612 23.5449 40.6657 23.549 40.6699C23.5504 40.6715 23.552 40.6724 23.5534 40.6739C24.0251 41.1425 24.5381 41.5759 25.0905 41.9678C26.5361 42.9938 28.1458 43.672 29.8745 43.9845C30.399 44.0795 30.9001 43.7278 30.9942 43.1997C31.0882 42.6712 30.7394 42.1661 30.215 42.0714Z" fill="#BEADD9"/>
<path d="M31.4078 24.2359C30.9764 24.2359 30.6269 24.5882 30.6269 25.0222V32.8562L37.7398 36.56C37.8543 36.6197 37.9768 36.6478 38.0975 36.6478C38.38 36.6478 38.6528 36.4929 38.7916 36.2225C38.9894 35.8366 38.8397 35.3624 38.4566 35.1632L32.1879 31.8986V25.0222C32.1878 24.5882 31.8388 24.2359 31.4078 24.2359Z" fill="#BEADD9"/>
</g>
<defs>
<clipPath id="clip0_1_14">
<rect width="64" height="64" fill="white"/>
</clipPath>
</defs>
</svg>
